<?xml version="1.0" encoding="UTF-8"?>
<svg width="80" height="280" viewBox="-40.0 0 80 280">
<circle cx="-25" cy="27.5" r="10" fill="#ffffff" stroke = "#000000"/>
<circle cx="-25" cy="52.5" r="10" fill="#ffffff" stroke = "#000000"/>
<circle cx="-25" cy="77.5" r="10" fill="#ffffff" stroke = "#000000"/>
<circle cx="-25" cy="102.5" r="10" fill="#ffffff" stroke = "#000000"/>
<circle cx="-25" cy="127.5" r="10" fill="#ffffff" stroke = "#000000"/>
<circle cx="-25" cy="152.5" r="10" fill="#ffffff" stroke = "#000000"/>
<circle cx="-25" cy="177.5" r="10" fill="#ffffff" stroke = "#000000"/>
<circle cx="-25" cy="202.5" r="10" fill="#ffffff" stroke = "#000000"/>
<circle cx="-25" cy="227.5" r="10" fill="#ffffff" stroke = "#000000"/>
<circle cx="-25" cy="252.5" r="10" fill="#ffffff" stroke = "#000000"/>
<circle cx="0" cy="15.0" r="10" fill="#ffffff" stroke = "#000000"/>
<circle cx="0" cy="40.0" r="10" fill="#ffffff" stroke = "#000000"/>
<circle cx="0" cy="65.0" r="10" fill="#ffffff" stroke = "#000000"/>
<circle cx="0" cy="90.0" r="10" fill="#ffffff" stroke = "#000000"/>
<circle cx="0" cy="115.0" r="10" fill="#ffffff" stroke = "#000000"/>
<circle cx="0" cy="140.0" r="10" fill="#ffffff" stroke = "#000000"/>
<circle cx="0" cy="165.0" r="10" fill="#ffffff" stroke = "#000000"/>
<circle cx="0" cy="190.0" r="10" fill="#ffffff" stroke = "#000000"/>
<circle cx="0" cy="215.0" r="10" fill="#ffffff" stroke = "#000000"/>
<circle cx="0" cy="240.0" r="10" fill="#ffffff" stroke = "#000000"/>
<circle cx="0" cy="265.0" r="10" fill="#ffffff" stroke = "#000000"/>
<circle cx="25" cy="27.5" r="10" fill="#ffffff" stroke = "#000000"/>
<circle cx="25" cy="52.5" r="10" fill="#ffffff" stroke = "#000000"/>
<circle cx="25" cy="77.5" r="10" fill="#ffffff" stroke = "#000000"/>
<circle cx="25" cy="102.5" r="10" fill="#ffffff" stroke = "#000000"/>
<circle cx="25" cy="127.5" r="10" fill="#ffffff" stroke = "#000000"/>
<circle cx="25" cy="152.5" r="10" fill="#ffffff" stroke = "#000000"/>
<circle cx="25" cy="177.5" r="10" fill="#ffffff" stroke = "#000000"/>
<circle cx="25" cy="202.5" r="10" fill="#ffffff" stroke = "#000000"/>
<circle cx="25" cy="227.5" r="10" fill="#ffffff" stroke = "#000000"/>
<circle cx="25" cy="252.5" r="10" fill="#ffffff" stroke = "#000000"/>
</svg>